<svg width="35" height="40" viewBox="0 0 35 40" fill="none" xmlns="http://www.w3.org/2000/svg">
<g id="Group 1000000903">
<path id="Vector" opacity="0.4" d="M25.7941 13.7231C25.0222 13.7231 24.4087 13.1032 24.4087 12.3232V9.76354C24.4087 7.80377 23.5776 5.92399 22.1526 4.60415C20.6882 3.2643 18.8081 2.64437 16.8291 2.82435C13.5043 3.14432 10.5951 6.56392 10.5951 10.1235V11.9233C10.5951 12.7032 9.98161 13.3231 9.20978 13.3231C8.43796 13.3231 7.82446 12.7032 7.82446 11.9233V10.1235C7.82446 5.12408 11.8221 0.504625 16.552 0.0446783C19.3028 -0.215291 21.9547 0.664606 23.9931 2.54439C26.0118 4.38417 27.1596 7.02386 27.1596 9.76354V12.3232C27.1596 13.1032 26.5461 13.7231 25.7941 13.7231Z" fill="#3486C1"/>
<path id="Vector_2" d="M33.2546 13.923C31.5923 12.0632 28.8612 11.1633 24.8635 11.1633H10.1396C6.14191 11.1633 3.41085 12.0632 1.74847 13.923C-0.171195 16.0828 -0.111824 18.9624 0.10587 20.9622L1.49119 32.1009C1.90679 36.0004 3.47022 40 11.9801 40H23.023C31.5329 40 33.0963 36.0004 33.5119 32.1209L34.8972 20.9422C35.1149 18.9624 35.1545 16.0828 33.2546 13.923ZM10.4166 22.302H10.3968C9.30836 22.302 8.4178 21.4021 8.4178 20.3023C8.4178 19.2024 9.30836 18.3025 10.3968 18.3025C11.5051 18.3025 12.3957 19.2024 12.3957 20.3023C12.3957 21.4021 11.5051 22.302 10.4166 22.302ZM24.2698 22.302H24.25C23.1616 22.302 22.271 21.4021 22.271 20.3023C22.271 19.2024 23.1616 18.3025 24.25 18.3025C25.3583 18.3025 26.2489 19.2024 26.2489 20.3023C26.2489 21.4021 25.3583 22.302 24.2698 22.302Z" fill="#3486C1"/>
</g>
</svg>
