<svg width="35" height="30" viewBox="0 0 35 30" fill="none" xmlns="http://www.w3.org/2000/svg">
<g id="Group 1000000919">
<path id="Vector" opacity="0.4" d="M26.25 30H8.75C3.5 30 0 27.3529 0 21.1765V8.82353C0 2.64706 3.5 0 8.75 0H26.25C31.5 0 35 2.64706 35 8.82353V21.1765C35 27.3529 31.5 30 26.25 30Z" fill="#79AA00"/>
<path id="Vector_2" d="M17.4998 20.2942C20.3993 20.2942 22.7498 17.9239 22.7498 15.0001C22.7498 12.0762 20.3993 9.70593 17.4998 9.70593C14.6003 9.70593 12.2498 12.0762 12.2498 15.0001C12.2498 17.9239 14.6003 20.2942 17.4998 20.2942Z" fill="#79AA00"/>
<g id="Group">
<path id="Vector_3" d="M6.12524 20.7354C5.40774 20.7354 4.81274 20.1354 4.81274 19.4118V10.5883C4.81274 9.86477 5.40774 9.26477 6.12524 9.26477C6.84274 9.26477 7.43774 9.86477 7.43774 10.5883V19.4118C7.43774 20.1354 6.84274 20.7354 6.12524 20.7354Z" fill="#79AA00"/>
</g>
<g id="Group_2">
<path id="Vector_4" d="M28.8745 20.7354C28.157 20.7354 27.562 20.1354 27.562 19.4118V10.5883C27.562 9.86477 28.157 9.26477 28.8745 9.26477C29.592 9.26477 30.187 9.86477 30.187 10.5883V19.4118C30.187 20.1354 29.592 20.7354 28.8745 20.7354Z" fill="#79AA00"/>
</g>
</g>
</svg>
