<svg width="154" height="154" viewBox="0 0 185 185" fill="none" xmlns="http://www.w3.org/2000/svg">
  <circle opacity="0.2" cx="92.5" cy="92.5" r="92.5" fill="#79AA00" />
  <path opacity="0.4" d="M108.634 54.0586H76.4043C62.4046 54.0586 54.0586 62.4004 54.0586 76.3931V108.569C54.0586 122.6 62.4046 130.942 76.4043 130.942H108.596C122.596 130.942 130.942 122.6 130.942 108.607V76.3931C130.98 62.4004 122.634 54.0586 108.634 54.0586Z" fill="#79AA00" />
  <path d="M87.0572 106.262C86.288 106.262 85.5572 105.954 85.0188 105.416L74.1344 94.5373C73.019 93.4225 73.019 91.5773 74.1344 90.4625C75.2497 89.3477 77.0958 89.3477 78.2112 90.4625L87.0572 99.3041L106.826 79.5451C107.941 78.4303 109.787 78.4303 110.903 79.5451C112.018 80.6599 112.018 82.5051 110.903 83.6199L89.0956 105.416C88.5571 105.954 87.8264 106.262 87.0572 106.262Z" fill="#79AA00" />
</svg>
