<svg width="30" height="48" viewBox="0 0 30 48" fill="none" xmlns="http://www.w3.org/2000/svg">
<path d="M30 31.1999V40.7999C30 44.7599 26.625 47.9999 22.5 47.9999H7.5C3.375 47.9999 0 44.7599 0 40.7999V28.752L9.72504 28.7999C11.55 28.7999 13.35 29.2079 15 29.9999C16.65 30.7919 18.45 31.1999 20.3 31.1999H30Z" fill="#3486C1"/>
<path opacity="0.4" d="M30 21.1924V31.2004H20.3C18.45 31.2004 16.65 30.7924 15 30.0004C13.35 29.2084 11.55 28.8004 9.72504 28.8004L0 28.7524V21.1924C0 20.0884 0.650067 18.5764 1.47507 17.7844L6.77505 12.6964C7.22505 12.2644 7.5 11.6404 7.5 11.0164V6.98438C7.9 7.12837 8.3 7.20037 8.75 7.20037H21.25C21.7 7.20037 22.1 7.12837 22.5 6.98438V11.0164C22.5 11.6404 22.7749 12.2644 23.2249 12.6964L28.5249 17.7844C29.3499 18.5764 30 20.0884 30 21.1924Z" fill="#3486C1"/>
<path d="M21.25 0H8.75C6.675 0 5 1.608 5 3.6C5 5.16 6.05 6.50401 7.5 6.98401C7.9 7.12801 8.3 7.2 8.75 7.2H21.25C21.7 7.2 22.1 7.12801 22.5 6.98401C23.95 6.50401 25 5.16 25 3.6C25 1.608 23.325 0 21.25 0Z" fill="#3486C1"/>
</svg>
